<svg xmlns="http://www.w3.org/2000/svg" version="1.1" xmlns:xlink="http://www.w3.org/1999/xlink" width="520.85986" height="508.57724"><svg xmlns="http://www.w3.org/2000/svg" version="1.1" xmlns:xlink="http://www.w3.org/1999/xlink" width="520.85986" height="508.57724"><svg version="1.1" id="svg1" width="520.85986" height="508.57724" viewBox="0 0 520.85986 508.57724" xmlns="http://www.w3.org/2000/svg" xmlns:svg="http://www.w3.org/2000/svg">
  <defs id="defs1"></defs>
  <g id="g1" transform="translate(-238.06308,-257.71035)">
    <path style="fill:#0f4c4a;fill-opacity:1" d="M 473.77323,765.87106 C 397.45978,759.63849 322.03421,718.21712 285.7405,649.14688 c -32.48546,-59.315 -26.56759,-134.62043 9.2636,-191.1199 44.26166,-75.59897 137.15406,-120.26419 223.64578,-101.9721 36.46213,7.13323 71.12172,27.45001 92.18772,58.35832 -31.88009,-17.29092 -68.02869,-26.87995 -104.44496,-23.08063 -78.55617,5.25561 -155.63086,68.94072 -159.683,150.47798 -5.0636,74.3647 49.43923,139.81812 113.51915,170.67426 45.71846,23.1709 98.06197,29.8343 148.63883,24.3536 -40.47656,24.14033 -88.57023,31.37283 -135.09439,29.03265 z m 84,-53.4897 c -76.19727,-7.53753 -155.04745,-56.07381 -176.15972,-133.06184 -2.93036,-9.04168 -8.44714,-54.22485 4.3486,-29.64819 48.22079,63.08224 139.24934,76.82858 211.15591,51.74258 71.76719,-22.82351 129.76783,-85.07974 143.78036,-159.55686 1.97739,-10.40721 3.62262,-24.9452 7.20984,-6.76196 17.82629,57.1612 13.49032,121.69627 -12.08551,175.89379 -26.24322,58.4155 -86.03731,99.5078 -150.16697,101.86197 -9.35583,0.52591 -18.74891,0.3554 -28.08251,-0.46949 z M 240.92285,545.16513 c -17.69384,-108.56596 48.5391,-221.43448 148.28419,-265.14532 75.39106,-33.54674 172.47353,-32.01233 237.26582,23.55253 49.73589,42.49191 71.89614,120.4618 40.65721,179.92723 -10.21966,14.9075 -4.21751,-26.77128 -10.67301,-33.0764 C 638.17543,380.04788 567.0074,334.87925 496.90879,330.9958 397.33645,322.79224 298.2758,385.67152 260.83248,477.86448 c -10.23809,23.51946 -15.66608,48.74989 -18.67343,74.13118 -0.41207,-2.27684 -0.82413,-4.55369 -1.2362,-6.83053 z" id="path1"></path>
  </g>
</svg></svg><style>@media (prefers-color-scheme: light) { :root { filter: none; } }
@media (prefers-color-scheme: dark) { :root { filter: none; } }
</style></svg>